<?xml version="1.0" encoding="UTF-8" standalone="no"?>
<!-- Created with Inkscape (http://www.inkscape.org/) -->

<svg
   xmlns:osb="http://www.openswatchbook.org/uri/2009/osb"
   xmlns:dc="http://purl.org/dc/elements/1.1/"
   xmlns:cc="http://creativecommons.org/ns#"
   xmlns:rdf="http://www.w3.org/1999/02/22-rdf-syntax-ns#"
   xmlns:svg="http://www.w3.org/2000/svg"
   xmlns="http://www.w3.org/2000/svg"
   xmlns:sodipodi="http://sodipodi.sourceforge.net/DTD/sodipodi-0.dtd"
   xmlns:inkscape="http://www.inkscape.org/namespaces/inkscape"
   version="1.1"
   id="svg998"
   width="100"
   height="100"
   viewBox="0 0 100 100"
   sodipodi:docname="PCBakers_vector.svg"
   inkscape:version="0.92.5 (2060ec1f9f, 2020-04-08)"
   inkscape:export-filename="/home/wblevins/Pictures/PCBakers_logo.png"
   inkscape:export-xdpi="300"
   inkscape:export-ydpi="300">
  <metadata
     id="metadata1004">
    <rdf:RDF>
      <cc:Work
         rdf:about="">
        <dc:format>image/svg+xml</dc:format>
        <dc:type
           rdf:resource="http://purl.org/dc/dcmitype/StillImage" />
        <dc:title></dc:title>
      </cc:Work>
    </rdf:RDF>
  </metadata>
  <defs
     id="defs1002">
    <marker
       inkscape:stockid="Arrow1Mend"
       orient="auto"
       refY="0"
       refX="0"
       id="marker2782"
       style="overflow:visible"
       inkscape:isstock="true">
      <path
         id="path2780"
         d="M 0,0 5,-5 -12.5,0 5,5 Z"
         style="fill:#000000;fill-opacity:1;fill-rule:evenodd;stroke:none;stroke-width:1.00000003pt;stroke-opacity:1"
         transform="matrix(-0.4,0,0,-0.4,-4,0)"
         inkscape:connector-curvature="0" />
    </marker>
    <marker
       inkscape:stockid="Arrow1Sstart"
       orient="auto"
       refY="0"
       refX="0"
       id="Arrow1Sstart"
       style="overflow:visible"
       inkscape:isstock="true">
      <path
         id="path2520"
         d="M 0,0 5,-5 -12.5,0 5,5 Z"
         style="fill:#000000;fill-opacity:1;fill-rule:evenodd;stroke:none;stroke-width:1.00000003pt;stroke-opacity:1"
         transform="matrix(0.2,0,0,0.2,1.2,0)"
         inkscape:connector-curvature="0" />
    </marker>
    <marker
       inkscape:stockid="Arrow1Mend"
       orient="auto"
       refY="0"
       refX="0"
       id="Arrow1Mend"
       style="overflow:visible"
       inkscape:isstock="true">
      <path
         id="path2517"
         d="M 0,0 5,-5 -12.5,0 5,5 Z"
         style="fill:#000000;fill-opacity:1;fill-rule:evenodd;stroke:none;stroke-width:1.00000003pt;stroke-opacity:1"
         transform="matrix(-0.4,0,0,-0.4,-4,0)"
         inkscape:connector-curvature="0" />
    </marker>
    <marker
       inkscape:stockid="Arrow1Mstart"
       orient="auto"
       refY="0"
       refX="0"
       id="Arrow1Mstart"
       style="overflow:visible"
       inkscape:isstock="true">
      <path
         id="path2514"
         d="M 0,0 5,-5 -12.5,0 5,5 Z"
         style="fill:#000000;fill-opacity:1;fill-rule:evenodd;stroke:none;stroke-width:1.00000003pt;stroke-opacity:1"
         transform="matrix(0.4,0,0,0.4,4,0)"
         inkscape:connector-curvature="0" />
    </marker>
    <marker
       inkscape:stockid="Arrow1Lend"
       orient="auto"
       refY="0"
       refX="0"
       id="Arrow1Lend"
       style="overflow:visible"
       inkscape:isstock="true">
      <path
         id="path2511"
         d="M 0,0 5,-5 -12.5,0 5,5 Z"
         style="fill:#000000;fill-opacity:1;fill-rule:evenodd;stroke:none;stroke-width:1.00000003pt;stroke-opacity:1"
         transform="matrix(-0.8,0,0,-0.8,-10,0)"
         inkscape:connector-curvature="0" />
    </marker>
    <marker
       inkscape:stockid="Arrow1Lstart"
       orient="auto"
       refY="0"
       refX="0"
       id="Arrow1Lstart"
       style="overflow:visible"
       inkscape:isstock="true">
      <path
         id="path2508"
         d="M 0,0 5,-5 -12.5,0 5,5 Z"
         style="fill:#000000;fill-opacity:1;fill-rule:evenodd;stroke:none;stroke-width:1.00000003pt;stroke-opacity:1"
         transform="matrix(0.8,0,0,0.8,10,0)"
         inkscape:connector-curvature="0" />
    </marker>
    <linearGradient
       id="linearGradient905"
       osb:paint="gradient">
      <stop
         style="stop-color:#000000;stop-opacity:1;"
         offset="0"
         id="stop901" />
      <stop
         style="stop-color:#000000;stop-opacity:0;"
         offset="1"
         id="stop903" />
    </linearGradient>
  </defs>
  <sodipodi:namedview
     pagecolor="#ffffff"
     bordercolor="#666666"
     borderopacity="1"
     objecttolerance="10"
     gridtolerance="10"
     guidetolerance="10"
     inkscape:pageopacity="0"
     inkscape:pageshadow="2"
     inkscape:window-width="1920"
     inkscape:window-height="995"
     id="namedview1000"
     showgrid="false"
     inkscape:zoom="4"
     inkscape:cx="96.006745"
     inkscape:cy="80.007704"
     inkscape:window-x="0"
     inkscape:window-y="48"
     inkscape:window-maximized="1"
     inkscape:current-layer="g2892" />
  <g
     id="g2892"
     transform="matrix(1.1299623,0,0,1.12997,-3.4292035,-0.49787149)">
    <rect
       style="opacity:1;vector-effect:none;fill:#ffffff;fill-opacity:1;stroke:none;stroke-width:0.88498229;stroke-linecap:butt;stroke-linejoin:miter;stroke-miterlimit:4;stroke-dasharray:none;stroke-dashoffset:0;stroke-opacity:1"
       id="rect888"
       width="96.020905"
       height="95.356514"
       x="-0.72639376"
       y="-2.9886887" />
    <g
       id="g2944"
       transform="translate(0,0.10663559)">
      <g
         id="g2506"
         transform="matrix(1.0840544,0,0,1.0840544,-2.3224641,-1.0445646)">
        <path
           inkscape:transform-center-x="-6.5047408e-06"
           transform="matrix(1.0206697,0,0,1.0010511,-5.7915383,0.07853688)"
           inkscape:transform-center-y="-2.5533554"
           d="m 41.671759,28.166967 4.417901,-7.652028 4.417901,-7.652029 4.4179,7.652028 4.417901,7.652029 -8.835801,0 z"
           inkscape:randomized="0"
           inkscape:rounded="0"
           inkscape:flatsided="false"
           sodipodi:arg2="3.6651914"
           sodipodi:arg1="2.6179939"
           sodipodi:r2="5.1013522"
           sodipodi:r1="10.202704"
           sodipodi:cy="23.065615"
           sodipodi:cx="50.507561"
           sodipodi:sides="3"
           id="path5830"
           style="opacity:1;vector-effect:none;fill:#b3b9b5;fill-opacity:1;stroke:#b3b9b5;stroke-width:2.75512648;stroke-linecap:butt;stroke-linejoin:round;stroke-miterlimit:4;stroke-dasharray:none;stroke-dashoffset:0;stroke-opacity:1"
           sodipodi:type="star" />
        <path
           sodipodi:nodetypes="ccccc"
           inkscape:connector-curvature="0"
           id="path891"
           d="m 50.460402,11.2344 4.465059,9.280538 4.533479,8.948294 -9.016391,0.08102 z"
           inkscape:transform-center-y="-2.5533554"
           inkscape:transform-center-x="-6.5047408e-06"
           style="opacity:1;vector-effect:none;fill:#d6dee2;fill-opacity:1;stroke:none;stroke-width:2.75520849;stroke-linecap:butt;stroke-linejoin:round;stroke-miterlimit:4;stroke-dasharray:none;stroke-dashoffset:0;stroke-opacity:1"
           transform="matrix(1.0206697,0,0,1.0010511,-5.7915383,0.07853688)" />
        <path
           transform="matrix(1.0206697,0,0,1.0010511,-5.7915383,0.07853688)"
           style="opacity:1;vector-effect:none;fill:#d6dee2;fill-opacity:1;stroke:#d6dee2;stroke-width:2.75520849;stroke-linecap:butt;stroke-linejoin:round;stroke-miterlimit:4;stroke-dasharray:none;stroke-dashoffset:0;stroke-opacity:1"
           inkscape:transform-center-x="-6.5047408e-06"
           inkscape:transform-center-y="-2.5533554"
           d="m 54.925461,20.514938 4.417901,7.652029 c -10.124318,0 -6.789157,-7.652029 -4.417901,-7.652029 z"
           id="path894"
           inkscape:connector-curvature="0"
           sodipodi:nodetypes="ccc" />
        <path
           inkscape:transform-center-x="-7.5615375e-06"
           transform="matrix(0.96520238,0,0,0.92579243,-2.9900193,2.0221131)"
           inkscape:transform-center-y="-2.3613952"
           d="m 41.671759,28.166967 4.417901,-7.652028 4.417901,-7.652029 4.4179,7.652028 4.417901,7.652029 -8.835801,0 z"
           inkscape:randomized="0"
           inkscape:rounded="0"
           inkscape:flatsided="false"
           sodipodi:arg2="3.6651914"
           sodipodi:arg1="2.6179939"
           sodipodi:r2="5.1013522"
           sodipodi:r1="10.202704"
           sodipodi:cy="23.065615"
           sodipodi:cx="50.507561"
           sodipodi:sides="3"
           id="path5830-7"
           style="opacity:1;vector-effect:none;fill:#3f2d20;fill-opacity:1;stroke:#3f2d20;stroke-width:1.15171087;stroke-linecap:butt;stroke-linejoin:round;stroke-miterlimit:4;stroke-dasharray:none;stroke-dashoffset:0;stroke-opacity:1"
           sodipodi:type="star" />
        <g
           id="g930">
          <path
             style="fill:#b3b9b5;fill-opacity:1;stroke:none;stroke-width:1px;stroke-linecap:butt;stroke-linejoin:miter;stroke-opacity:1"
             d="M 45.759997,11.324745 V 22.649491 H 39.566641 Z"
             id="path887"
             inkscape:connector-curvature="0"
             sodipodi:nodetypes="cccc" />
          <rect
             style="opacity:1;vector-effect:none;fill:#b3b9b5;fill-opacity:1;stroke:none;stroke-width:1.00157475;stroke-linecap:round;stroke-linejoin:round;stroke-miterlimit:4;stroke-dasharray:none;stroke-dashoffset:0;stroke-opacity:0.99607843"
             id="rect847"
             width="2.419024"
             height="10.116734"
             x="43.340973"
             y="4.7143946" />
        </g>
        <g
           id="g926">
          <g
             id="g865"
             transform="matrix(0.99999266,0,0,1.0494231,-4.6584891,-0.23299984)">
            <rect
               y="4.7143946"
               x="50.340733"
               height="10.116734"
               width="2.419024"
               id="rect847-6"
               style="opacity:1;vector-effect:none;fill:#d6dee2;fill-opacity:1;stroke:none;stroke-width:1.00157475;stroke-linecap:round;stroke-linejoin:round;stroke-miterlimit:4;stroke-dasharray:none;stroke-dashoffset:0;stroke-opacity:1" />
          </g>
          <path
             inkscape:connector-curvature="0"
             id="path889"
             d="m 45.681874,10.486217 v 12.163274 l 6.502676,-0.02958 z"
             style="fill:#d6dee2;fill-opacity:1;stroke:none;stroke-width:1.08971465px;stroke-linecap:butt;stroke-linejoin:miter;stroke-opacity:1"
             sodipodi:nodetypes="cccc" />
          <path
             style="fill:#d6dee2;fill-opacity:1;stroke:none;stroke-width:1px;stroke-linecap:butt;stroke-linejoin:miter;stroke-opacity:1"
             d="m 48.09375,14.152969 3.878906,6.597657 -3.849957,-1.031593 -1.493136,-5.572462 z"
             id="path920"
             inkscape:connector-curvature="0" />
        </g>
        <path
           inkscape:connector-curvature="0"
           id="path5807"
           d="m 42.569389,3.9219558 h 6.381219"
           style="fill:#b3b9b5;fill-opacity:1;stroke:#b3b9b5;stroke-width:1.79999995;stroke-linecap:round;stroke-linejoin:miter;stroke-miterlimit:4;stroke-dasharray:none;stroke-opacity:1" />
        <g
           style="fill:#ffffff;fill-opacity:0.81862745;fill-rule:nonzero;stroke:none"
           id="g899">
          <circle
             style="opacity:1;vector-effect:none;fill:#ffffff;fill-opacity:0.81862745;fill-rule:nonzero;stroke:none;stroke-width:0.05;stroke-linecap:round;stroke-linejoin:round;stroke-miterlimit:4;stroke-dasharray:none;stroke-dashoffset:0;stroke-opacity:1"
             id="path932"
             cx="41.96875"
             cy="24.141251"
             r="1.2753328" />
          <circle
             style="opacity:1;vector-effect:none;fill:#ffffff;fill-opacity:0.81862745;fill-rule:nonzero;stroke:none;stroke-width:0.05;stroke-linecap:round;stroke-linejoin:round;stroke-miterlimit:4;stroke-dasharray:none;stroke-dashoffset:0;stroke-opacity:1"
             id="path932-9"
             cx="50.75"
             cy="27.110001"
             r="1.03125" />
          <circle
             style="opacity:1;vector-effect:none;fill:#ffffff;fill-opacity:0.81862745;fill-rule:nonzero;stroke:none;stroke-width:0.03117172;stroke-linecap:round;stroke-linejoin:round;stroke-miterlimit:4;stroke-dasharray:none;stroke-dashoffset:0;stroke-opacity:1"
             id="path932-1"
             cx="43.914749"
             cy="20.149754"
             r="0.64291656" />
          <circle
             style="opacity:1;vector-effect:none;fill:#ffffff;fill-opacity:0.81862745;fill-rule:nonzero;stroke:none;stroke-width:0.05;stroke-linecap:round;stroke-linejoin:round;stroke-miterlimit:4;stroke-dasharray:none;stroke-dashoffset:0;stroke-opacity:1"
             id="path932-2"
             cx="47.4375"
             cy="16.235001"
             r="0.90418661" />
          <circle
             style="opacity:1;vector-effect:none;fill:#ffffff;fill-opacity:0.81862745;fill-rule:nonzero;stroke:none;stroke-width:0.03272216;stroke-linecap:round;stroke-linejoin:round;stroke-miterlimit:4;stroke-dasharray:none;stroke-dashoffset:0;stroke-opacity:1"
             id="path932-2-7"
             cx="48.800205"
             cy="25.097708"
             r="0.61137742" />
          <circle
             style="opacity:1;vector-effect:none;fill:#ffffff;fill-opacity:0.81862745;fill-rule:nonzero;stroke:none;stroke-width:0.05;stroke-linecap:round;stroke-linejoin:round;stroke-miterlimit:4;stroke-dasharray:none;stroke-dashoffset:0;stroke-opacity:1"
             id="path932-2-0"
             cx="44.25"
             cy="26.547501"
             r="0.60410506" />
          <circle
             style="opacity:1;vector-effect:none;fill:#ffffff;fill-opacity:0.81862745;fill-rule:nonzero;stroke:none;stroke-width:0.05;stroke-linecap:round;stroke-linejoin:round;stroke-miterlimit:4;stroke-dasharray:none;stroke-dashoffset:0;stroke-opacity:1"
             id="path932-2-9"
             cx="40.65625"
             cy="27.453751"
             r="0.81767756" />
          <circle
             style="opacity:1;vector-effect:none;fill:#ffffff;fill-opacity:0.81862745;fill-rule:nonzero;stroke:none;stroke-width:0.03525515;stroke-linecap:round;stroke-linejoin:round;stroke-miterlimit:4;stroke-dasharray:none;stroke-dashoffset:0;stroke-opacity:1"
             id="path932-2-3"
             cx="46.59375"
             cy="8.7327795"
             r="0.61638588" />
          <circle
             style="opacity:1;vector-effect:none;fill:#ffffff;fill-opacity:0.81862745;fill-rule:nonzero;stroke:none;stroke-width:0.05;stroke-linecap:round;stroke-linejoin:round;stroke-miterlimit:4;stroke-dasharray:none;stroke-dashoffset:0;stroke-opacity:1"
             id="path932-2-6-0"
             cx="44.5625"
             cy="13.047501"
             r="0.60410506" />
        </g>
      </g>
      <text
         xml:space="preserve"
         style="font-style:normal;font-variant:normal;font-weight:normal;font-stretch:normal;font-size:40px;line-height:1.25;font-family:'Southern Aire Personal Use Only';-inkscape-font-specification:'Southern Aire Personal Use Only';letter-spacing:0px;word-spacing:0px;fill:#000000;fill-opacity:1;stroke:none"
         x="21.857258"
         y="47.139477"
         id="text2388"><tspan
           sodipodi:role="line"
           id="tspan2386"
           x="21.857258"
           y="47.139477"
           style="font-style:normal;font-variant:normal;font-weight:bold;font-stretch:normal;font-size:13.33333397px;font-family:'Dancing Script';-inkscape-font-specification:'Dancing Script Bold'">PCBakers</tspan></text>
      <g
         transform="translate(0,-1.7699585)"
         aria-label="baking for change"
         style="font-style:normal;font-variant:normal;font-weight:normal;font-stretch:normal;font-size:40px;line-height:1.25;font-family:'Southern Aire Personal Use Only';-inkscape-font-specification:'Southern Aire Personal Use Only';letter-spacing:0px;word-spacing:0px;fill:#000000;fill-opacity:1;stroke:none"
         id="text2400">
        <path
           d="m 21.239342,74.776933 q 0.07572,0.06933 0.128508,0.207148 0.06315,0.13736 0.08759,0.338712 0.0294,0.195943 -0.07316,0.459986 -0.0976,0.258634 -0.330356,0.512842 -0.346652,0.378608 -0.896094,0.631199 -0.539081,0.252134 -1.119289,0.277699 -0.435155,0.01917 -0.996537,-0.116995 -0.555972,-0.131217 -0.734459,-0.294639 -0.178486,-0.163421 -0.286343,-0.49086 -0.107856,-0.327438 -0.03586,-0.460372 0.03825,-0.07435 0.940841,-1.147028 0.907546,-1.078085 1.233406,-1.575158 0.695833,-1.053184 1.200954,-1.60487 0.18323,-0.200121 0.328282,-0.206513 0.155413,-0.0068 0.204091,0.03772 0.08113,0.07428 -0.07506,0.299164 -0.150778,0.229835 -0.53926,0.719286 -0.388482,0.489451 -0.651334,0.885128 -0.345668,0.518708 -0.586042,0.835538 l -0.245325,0.322238 0.803194,-0.0302 q 0.808146,-0.03561 1.178993,0.134909 0.355077,0.166021 0.463251,0.265064 z m -0.525882,1.258506 q 0.54969,-0.600364 0.192717,-0.927207 -0.09195,-0.08419 -0.294738,-0.210203 -0.133391,-0.08236 -0.616312,-0.08704 -0.477968,-0.01008 -0.941924,0.06227 -0.293686,0.04927 -0.637281,0.261652 -0.338186,0.21733 -0.590747,0.493172 -0.282273,0.308295 -0.324034,0.538517 -0.03681,0.224812 0.07677,0.328808 0.0595,0.05447 0.32986,0.182704 0.307313,0.142173 0.77492,0.152712 0.473017,0.01549 0.940098,-0.103708 0.600403,-0.156217 1.090667,-0.691677 z"
           style="font-style:normal;font-variant:normal;font-weight:normal;font-stretch:normal;font-size:7.33333349px;font-family:Purisa;-inkscape-font-specification:Purisa"
           id="path2439"
           inkscape:connector-curvature="0" />
        <path
           d="m 23.859011,77.251003 q -0.270514,-0.201535 -0.659554,-0.317622 -0.38316,-0.111707 -0.706013,-0.169339 -0.318472,-0.06351 -0.424325,-0.142375 -0.07057,-0.05257 -0.02676,-0.111381 0.06134,-0.08233 0.140433,-0.114851 0.0791,-0.03252 0.212618,-0.01535 0.133523,0.01717 0.24214,0.04322 0.114498,0.03043 0.350874,0.105943 0.240758,0.06963 0.419827,0.111589 0.409564,0.113088 0.627151,0.275192 0.388129,0.289158 0.290271,0.874674 -0.04749,0.284687 -0.161282,0.474253 -0.109412,0.183685 -0.693491,0.992227 -0.327089,0.451317 -0.543149,0.765877 -0.211679,0.30868 -0.261254,0.399773 l -0.04519,0.08521 q -0.06134,0.08233 -0.207885,0.119466 -0.140667,0.04152 -0.175952,0.01523 -0.117614,-0.08762 0.09371,-0.506303 0.215708,-0.42456 0.209827,-0.428941 -0.01764,-0.01314 -0.10112,0.02526 -0.262193,0.106441 -0.796165,0.07442 -0.523711,-0.03352 -0.764821,-0.213151 -0.147018,-0.109529 -0.307532,-0.311416 -0.150253,-0.203386 -0.190271,-0.333792 -0.02526,-0.10112 0.04599,-0.294949 0.07713,-0.189448 0.1998,-0.354109 0.184009,-0.246991 0.444821,-0.327027 0.271073,-0.08154 0.752354,-0.01561 0.53259,0.05843 0.879553,0.316917 0.141138,0.105148 0.20018,0.222293 0.05904,0.117145 0.06666,0.205121 0.012,0.08209 0.0414,0.104001 0.02352,0.01752 0.06354,0.147931 0.0444,0.124525 0.05028,0.128906 0.02352,0.01752 0.119909,-0.111852 0.587079,-0.788018 0.703166,-1.177058 0.121968,-0.38466 -0.08974,-0.542382 z m -1.093533,2.02018 q 0.01752,-0.02352 0.02179,-0.06607 0.01453,-0.04405 -0.0019,-0.120261 -0.0061,-0.07771 -0.0504,-0.165573 -0.03402,-0.08936 -0.13411,-0.200505 -0.09571,-0.117027 -0.242727,-0.226557 -0.252872,-0.18839 -0.512654,-0.244758 -0.253901,-0.05199 -0.44876,0.01317 -0.194859,0.06516 -0.329528,0.147723 -0.124408,0.08107 -0.190125,0.169277 -0.10953,0.147018 -0.125438,0.217469 -0.01003,0.07483 0.05202,0.212502 0.08118,0.161074 0.187036,0.239935 0.199945,0.14896 0.59913,0.226881 0.409447,0.07642 0.45764,0.01173 0.03505,-0.04705 0.342907,-0.09203 0.318119,-0.04649 0.375075,-0.122936 z"
           style="font-style:normal;font-variant:normal;font-weight:normal;font-stretch:normal;font-size:7.33333349px;font-family:Purisa;-inkscape-font-specification:Purisa"
           id="path2441"
           inkscape:connector-curvature="0" />
        <path
           d="m 26.043002,76.488262 q 0.137937,-0.225099 0.28175,-0.136973 0.118802,0.0728 0.08695,0.251098 -0.01613,0.110527 -0.248231,0.587546 -0.225852,0.48085 -0.520672,1.074249 -0.288567,0.597231 -0.396651,0.857825 l -0.17221,0.393312 1.149613,-0.276013 q 0.615144,-0.147691 0.851925,-0.183209 0.240614,-0.04177 0.315647,0.0042 0.04377,0.02682 0.05547,0.120001 0.01796,0.09701 -0.02036,0.159539 -0.02682,0.04377 -0.07099,0.05971 -0.03408,0.01352 -0.08693,0.01554 -0.04276,-4e-4 -0.167602,0.03491 -0.124844,0.03531 -0.285182,0.100466 -0.550595,0.23885 -1.58566,0.370039 -0.368888,0.04057 -0.449351,0.171879 -0.05364,0.08754 0.02442,0.212781 l 0.477464,0.722616 q 0.328598,0.502383 0.500877,0.908977 0.172279,0.406593 0.09948,0.525395 -0.08046,0.131308 -0.205518,0.05468 -0.11255,-0.06897 -0.239438,-0.353139 -0.123056,-0.290424 -0.179331,-0.324908 -0.07503,-0.04598 -0.04438,-0.096 0.04215,-0.06878 -0.548266,-0.817607 l -0.254764,-0.328128 -0.274252,0.545798 q -0.107684,0.217836 -0.180484,0.336638 -0.160926,0.262615 -0.292234,0.182152 -0.200087,-0.122611 -0.08777,-0.432216 0.122399,-0.312026 0.775977,-1.476846 0.579368,-1.029681 0.710841,-1.370549 0.127641,-0.334616 0.438798,-0.926605 0.311157,-0.591989 0.541052,-0.967153 z"
           style="font-style:normal;font-variant:normal;font-weight:normal;font-stretch:normal;font-size:7.33333349px;font-family:Purisa;-inkscape-font-specification:Purisa"
           id="path2443"
           inkscape:connector-curvature="0" />
        <path
           d="m 28.764589,79.674578 q 0.131779,-0.03031 0.196739,0.0037 0.136416,0.07146 -0.03312,0.537319 -0.159634,0.462765 -0.750819,1.71773 -0.273474,0.585259 -0.515082,1.046474 -0.241608,0.461215 -0.304405,0.486269 -0.128995,0.05661 -0.245923,-0.0046 -0.1624,-0.08507 -0.129914,-0.241906 0.01176,-0.101463 0.589952,-1.363234 0.581596,-1.268267 0.833413,-1.74897 0.210981,-0.402751 0.359155,-0.432752 z m 0.760713,-1.546975 q 0.04764,-0.09094 0.166738,-0.144455 0.125592,-0.05011 0.184056,-0.01948 0.06496,0.03403 0.127751,0.182822 0.07269,0.145701 0.0012,0.282117 -0.05104,0.09744 -0.14694,0.138269 -0.086,0.03774 -0.176941,-0.0099 -0.103936,-0.05445 -0.16054,-0.183443 -0.05661,-0.128996 0.0046,-0.245924 z"
           style="font-style:normal;font-variant:normal;font-weight:normal;font-stretch:normal;font-size:7.33333349px;font-family:Purisa;-inkscape-font-specification:Purisa"
           id="path2445"
           inkscape:connector-curvature="0" />
        <path
           d="m 30.283521,80.697697 q 0.09868,-0.228975 0.233371,-0.170928 0.08755,0.03773 0.04089,0.257181 -0.04376,0.212716 -0.356847,1.235664 -0.334445,1.109567 -0.334558,1.165416 0.03855,-0.01533 0.430391,-0.461331 0.363864,-0.418134 0.532678,-0.568971 0.178452,-0.15467 0.546739,-0.379249 0.784759,-0.468318 1.054141,-0.352225 0.175098,0.07546 0.228411,0.377924 0.07526,0.399762 -0.0082,0.723133 -0.08346,0.323372 -0.550853,1.463484 -0.299983,0.733136 -0.35803,0.867827 -0.145117,0.336728 -0.238809,0.480013 -0.08406,0.139453 -0.145709,0.152809 -0.05782,0.02299 -0.168477,-0.01671 -0.06061,-0.02612 -0.0576,-0.0887 1.13e-4,-0.05585 0.07848,-0.237681 0.04354,-0.101019 0.199219,-0.425207 0.158586,-0.330923 0.257266,-0.559898 0.246699,-0.572437 0.434647,-1.138252 0.197584,-0.569647 0.203727,-0.750663 0.0041,-0.102061 -0.02939,-0.228271 -0.03345,-0.126209 -0.100792,-0.155232 -0.141426,-0.06095 -0.660184,0.290431 -0.515856,0.344645 -0.967381,0.780898 -0.429349,0.421853 -0.613718,0.64584 -0.184369,0.223988 -0.407623,0.63085 -0.370119,0.654999 -0.403792,0.640487 -0.05388,-0.02322 -0.105555,-0.181241 -0.04215,-0.106006 0.03539,-0.360059 0.08045,-0.260788 0.346759,-1.008436 0.269213,-0.754383 0.510558,-1.536746 0.252955,-0.809302 0.374853,-1.092153 z"
           style="font-style:normal;font-variant:normal;font-weight:normal;font-stretch:normal;font-size:7.33333349px;font-family:Purisa;-inkscape-font-specification:Purisa"
           id="path2447"
           inkscape:connector-curvature="0" />
        <path
           d="m 35.220548,88.209205 q 0.343753,0.104661 0.435599,-0.197 0.155924,-0.512123 0.233444,-0.917799 0.0824,-0.396526 0.107443,-0.680198 0.03206,-0.281536 0.06135,-0.402933 0.168759,-0.73052 0.119651,-0.745472 -0.02806,-0.0085 -0.143678,0.09424 -0.254414,0.20617 -0.745529,0.409265 -0.491114,0.203094 -0.780586,0.22228 -0.337973,0.02742 -0.702772,-0.08365 -0.224492,-0.06835 -0.340697,-0.165057 -0.109189,-0.09457 -0.264116,-0.341048 -0.147911,-0.244342 -0.189377,-0.410281 -0.04147,-0.165939 -0.01154,-0.440459 0.02992,-0.274521 0.08546,-0.456921 0.04058,-0.133292 0.08085,-0.190022 0.106778,-0.174464 0.438988,-0.510262 0.33221,-0.335798 0.575945,-0.506892 0.207129,-0.151576 0.686036,-0.289396 0.488057,-0.1427 0.826637,-0.146933 0.354747,-0.007 0.768654,0.119043 0.519138,0.15806 0.807357,0.445121 0.290355,0.280046 0.17715,0.651861 -0.06408,0.210461 -0.263291,0.487098 -0.192196,0.278774 -0.262683,0.510281 -0.03631,0.119262 -0.545643,2.371217 l -0.33691,1.484222 -0.305344,0.121673 q -0.245558,0.101547 -0.449004,0.03961 -0.371815,-0.113205 -0.847313,-0.464952 -0.477634,-0.344732 -0.788722,-0.707747 -0.313224,-0.355999 -0.266233,-0.510338 0.05554,-0.1824 0.326116,-0.391313 0.277596,-0.206778 0.410888,-0.166195 0.154339,0.04699 0.1223,0.152221 -0.01922,0.06314 -0.120809,0.170192 -0.101586,0.107053 -0.137897,0.226314 -0.05981,0.196431 0.154908,0.422784 0.214714,0.226353 0.397114,0.281887 0.105231,0.03204 0.301035,0.244969 0.202819,0.215066 0.385219,0.2706 z m -1.696125,-3.99664 q -0.123885,0.406892 -0.01595,0.807708 0.107936,0.400817 0.423628,0.496934 0.427938,0.130293 1.036491,-0.106037 0.617705,-0.241209 1.103665,-0.729504 0.268758,-0.27846 0.516176,-0.663072 0.25657,-0.389491 0.331328,-0.635029 0.04272,-0.140308 0.0022,-0.183321 -0.135723,-0.133311 -0.486492,-0.240108 -0.322707,-0.09825 -0.575574,-0.09859 -0.663736,-0.01044 -1.435504,0.459825 -0.771768,0.470267 -0.899924,0.89119 z"
           style="font-style:normal;font-variant:normal;font-weight:normal;font-stretch:normal;font-size:7.33333349px;font-family:Purisa;-inkscape-font-specification:Purisa"
           id="path2449"
           inkscape:connector-curvature="0" />
        <path
           d="m 43.532278,84.973494 q -0.08774,-0.0067 -0.379061,0.05192 -0.283446,0.05188 -0.451622,0.03902 -0.321728,-0.0246 -0.306076,-0.229332 0.0061,-0.08043 0.128172,-0.137296 0.129335,-0.05631 0.488137,-0.131841 l 0.605687,-0.130209 0.06326,-0.635026 q 0.06661,-0.678898 0.216962,-1.491133 0.112205,-0.601865 0.175687,-0.758816 0.06348,-0.156951 0.252386,-0.319023 0.157419,-0.13506 0.248517,-0.172224 0.09841,-0.03661 0.266586,-0.02375 0.124304,0.0095 0.523669,0.07681 0.304868,0.05272 0.432012,0.121283 0.127703,0.06125 0.283022,0.242279 0.229602,0.267614 0.21395,0.47235 -0.01118,0.14624 -0.14047,0.29816 -0.121419,0.145167 -0.179915,0.140695 -0.08774,-0.0067 -0.06874,-0.255316 0.01789,-0.233984 -0.104225,-0.36835 -0.114242,-0.141119 -0.470898,-0.286061 -0.235706,-0.09157 -0.367322,-0.101628 -0.314416,-0.02404 -0.517853,0.328147 -0.07699,0.141209 -0.188589,0.831376 -0.103729,0.683415 -0.14789,1.261063 -0.03186,0.416784 -0.011,0.5287 0.02873,0.105163 0.174974,0.116343 0.08774,0.0067 0.369513,-0.02323 0.281769,-0.02994 0.464569,-0.01597 0.102368,0.0078 0.165381,0.04942 0.06357,0.03428 0.06022,0.07815 -0.0095,0.124304 -0.652869,0.266342 l -0.642806,0.134727 -0.110817,1.16093 q -0.0067,0.08774 -0.02576,0.240737 -0.01118,0.14624 -0.01565,0.204736 -0.04192,0.5484 -0.01366,0.852105 0.02826,0.303705 0.06939,0.439233 0.04112,0.135529 0.02938,0.289081 -0.01677,0.21936 -0.221506,0.203708 -0.387536,-0.02963 -0.231576,-2.069674 0.09335,-1.221103 0.05283,-1.268329 -0.0068,-0.0079 -0.036,-0.01011 z"
           style="font-style:normal;font-variant:normal;font-weight:normal;font-stretch:normal;font-size:7.33333349px;font-family:Purisa;-inkscape-font-specification:Purisa"
           id="path2451"
           inkscape:connector-curvature="0" />
        <path
           d="m 47.24014,85.168635 q 0.555734,-0.552201 0.939182,-0.732416 0.39056,-0.187764 0.991624,-0.205749 0.908927,-0.0272 1.152388,0.508429 0.148921,0.318356 0.162958,0.787479 0.02325,0.776986 -0.297359,1.58627 -0.320826,0.801953 -0.817388,1.124949 -0.482121,0.315226 -1.024545,0.331456 -0.754996,0.02259 -1.225031,-0.484246 -0.326158,-0.357071 -0.428906,-0.603442 -0.102967,-0.253701 -0.117003,-0.722824 -0.02654,-0.886937 0.66408,-1.589906 z m 1.27028,2.977341 q 0.615724,-0.01842 1.088946,-0.876292 0.480332,-0.86542 0.448311,-1.935607 -0.0048,-0.161262 -0.04389,-0.240796 -0.03906,-0.07953 -0.136766,-0.157313 -0.278011,-0.219117 -0.585874,-0.209905 -0.05131,0.0015 -0.116842,0.01817 -0.05842,0.0091 -0.197034,0.03524 -0.138832,0.01883 -0.328756,0.04652 -0.255455,0.04433 -0.406974,0.129562 -0.144407,0.07769 -0.365279,0.297058 -0.420191,0.423423 -0.592915,0.780748 -0.172943,0.349996 -0.160661,0.760479 0.0182,0.608394 0.40366,0.985702 0.392787,0.377088 0.994071,0.366433 z"
           style="font-style:normal;font-variant:normal;font-weight:normal;font-stretch:normal;font-size:7.33333349px;font-family:Purisa;-inkscape-font-specification:Purisa"
           id="path2453"
           inkscape:connector-curvature="0" />
        <path
           d="m 53.546703,84.405521 q 0.123646,-0.01592 0.2285,0.05191 0.103917,0.06056 0.110473,0.111472 0.01124,0.08728 -0.251101,0.231964 -0.427534,0.239893 -0.810399,0.998998 -0.376528,0.750896 -0.39501,1.41133 -0.02179,0.749586 -0.06549,0.984423 -0.04277,0.24211 -0.15914,0.257093 -0.101826,0.01311 -0.169377,-0.05213 -0.06028,-0.06618 -0.09334,-0.150648 -0.02578,-0.08541 -0.07757,-0.315343 -0.01289,-0.0427 -0.0157,-0.06452 -0.410545,-1.810396 -0.547266,-2.872297 -0.0487,-0.378212 -0.03084,-0.469237 0.05004,-0.243047 0.173686,-0.258966 0.116373,-0.01498 0.141657,0.181395 0.04214,0.327299 0.237611,1.041518 0.195471,0.71422 0.246384,0.707664 0.06546,-0.0084 0.217608,-0.43468 0.193696,-0.50554 0.570597,-0.908972 0.383239,-0.411642 0.688717,-0.450974 z"
           style="font-style:normal;font-variant:normal;font-weight:normal;font-stretch:normal;font-size:7.33333349px;font-family:Purisa;-inkscape-font-specification:Purisa"
           id="path2455"
           inkscape:connector-curvature="0" />
        <path
           d="m 62.002438,82.793099 q 0.0402,0.118009 0.01067,0.213283 -0.02258,0.09291 -0.092,0.116554 -0.131893,0.04492 -0.235169,-0.144564 -0.06826,-0.15493 -0.366213,-0.324593 -0.123344,-0.06645 -0.193064,-0.08918 -0.06972,-0.02274 -0.294522,-3.94e-4 -0.217861,0.01998 -0.551063,0.133468 -0.270726,0.09221 -0.383401,0.239048 -0.105732,0.144472 -0.212314,0.513898 -0.258633,0.878292 -0.06475,1.447513 0.09931,0.291551 0.230349,0.471581 0.128679,0.173088 0.207857,0.22359 0.08376,0.0412 0.269877,0.132742 0.267513,0.1258 0.390554,0.145867 0.127618,0.01076 0.321986,-0.05544 0.603929,-0.205704 1.039925,-1.26836 0.232987,-0.544181 0.399588,-0.600927 0.09024,-0.03074 0.135166,0.101155 0.04256,0.124951 -0.151142,0.648004 -0.18676,0.520688 -0.366032,0.767679 -0.413624,0.582466 -0.84401,0.72906 -0.312377,0.106398 -0.751068,0.04665 -0.445633,-0.05738 -0.727939,-0.317591 -0.275364,-0.262573 -0.518141,-0.861622 -0.101215,-0.228924 -0.148503,-0.367759 -0.09221,-0.270726 -0.02301,-0.681651 0.06669,-0.441056 0.31638,-0.913455 0.256631,-0.474764 0.501349,-0.643335 0.191701,-0.119524 0.434661,-0.202279 0.52757,-0.179695 1.039103,0.02568 0.516111,0.196066 0.624874,0.515385 z"
           style="font-style:normal;font-variant:normal;font-weight:normal;font-stretch:normal;font-size:7.33333349px;font-family:Purisa;-inkscape-font-specification:Purisa"
           id="path2457"
           inkscape:connector-curvature="0" />
        <path
           d="m 63.775608,84.565921 q -0.240084,-0.535291 -1.100164,-2.094527 -0.856389,-1.568928 -1.132487,-2.184514 -0.159056,-0.35463 -0.151921,-0.446239 0.01727,-0.176527 0.09087,-0.209539 0.120441,-0.05402 0.258934,0.165166 0.145184,0.216184 0.638246,1.136316 0.12511,0.225187 0.197825,0.369391 0.0764,0.134512 0.206828,0.389464 0.134114,0.24526 0.262225,0.477138 l 0.414346,0.762546 0.0034,-0.314974 q -0.0012,-0.361122 0.301607,-1.083659 0.302832,-0.722536 0.483493,-0.803565 0.167278,-0.07503 0.452042,0.02229 0.284764,0.09732 0.441019,0.284427 0.134557,0.156653 0.782786,1.60194 0.468166,1.043819 0.535123,1.246865 0.06396,0.196355 -0.0431,0.244372 -0.107058,0.04802 -0.227545,-0.131021 -0.113795,-0.182039 -0.554706,-1.093412 -0.619351,-1.273385 -0.901849,-1.580688 l -0.257112,-0.28654 -0.226029,0.535383 q -0.175746,0.43246 -0.268641,0.924205 -0.0862,0.488744 -0.05083,0.818478 0.03281,0.234436 0.196738,0.70744 0.163925,0.473004 0.235752,0.794424 0.07852,0.318419 -0.02854,0.366436 -0.04684,0.02101 -0.137758,-0.0025 -0.165457,-0.04635 -0.420547,-0.615096 z"
           style="font-style:normal;font-variant:normal;font-weight:normal;font-stretch:normal;font-size:7.33333349px;font-family:Purisa;-inkscape-font-specification:Purisa"
           id="path2459"
           inkscape:connector-curvature="0" />
        <path
           d="m 67.517849,79.328026 q -0.293744,0.165856 -0.557297,0.474674 -0.257167,0.305213 -0.440485,0.577151 -0.186923,0.265552 -0.301867,0.330452 -0.07663,0.04327 -0.112684,-0.02059 -0.05048,-0.0894 -0.04822,-0.174892 0.0023,-0.08549 0.07198,-0.200651 0.06972,-0.115161 0.137489,-0.203953 0.07415,-0.0924 0.238835,-0.27802 0.161076,-0.192007 0.271893,-0.338792 0.269113,-0.328801 0.505385,-0.462207 0.421459,-0.237968 0.917332,0.0884 0.241138,0.158601 0.368462,0.339356 0.123719,0.17437 0.626848,1.035619 0.280409,0.48171 0.48067,0.806558 0.196656,0.318461 0.259905,0.40065 l 0.05964,0.0758 q 0.05048,0.0894 0.02515,0.238444 -0.01894,0.145439 -0.05725,0.167072 -0.127714,0.07211 -0.425108,-0.290528 -0.301,-0.369026 -0.307386,-0.365421 -0.01916,0.01082 -0.01781,0.102693 -0.0087,0.282841 -0.254038,0.75821 -0.242527,0.465378 -0.504343,0.613207 -0.159643,0.09014 -0.409208,0.155257 -0.246785,0.05513 -0.382233,0.03897 -0.102693,-0.01781 -0.251129,-0.16138 -0.142051,-0.147176 -0.243007,-0.325977 -0.151434,-0.268201 -0.119114,-0.539096 0.0351,-0.280885 0.290093,-0.694352 0.268896,-0.463423 0.645654,-0.676152 0.153258,-0.08653 0.284274,-0.09314 0.131017,-0.0066 0.214553,0.02202 0.07993,0.02224 0.111859,0.0042 0.02554,-0.01442 0.16099,0.0017 0.131842,0.0098 0.138228,0.0062 0.02554,-0.01442 -0.05378,-0.154908 -0.483146,-0.855689 -0.791965,-1.119242 -0.302433,-0.267158 -0.532319,-0.137357 z m 1.405085,1.817328 q -0.01442,-0.02554 -0.05161,-0.04666 -0.0344,-0.0311 -0.11073,-0.04696 -0.07354,-0.02585 -0.171807,-0.02089 -0.09548,-0.005 -0.237619,0.04153 -0.145742,0.04018 -0.305386,0.130322 -0.274587,0.155039 -0.431232,0.369809 -0.15026,0.211164 -0.169504,0.415726 -0.01924,0.204561 0.0018,0.36112 0.0238,0.146568 0.07789,0.242354 0.09014,0.159643 0.148132,0.202693 0.06438,0.03944 0.215378,0.0384 0.180147,-0.0091 0.295091,-0.07398 0.217115,-0.122589 0.449868,-0.456125 0.235533,-0.343528 0.195872,-0.413771 -0.02884,-0.05109 0.05456,-0.350825 0.08619,-0.309731 0.03931,-0.392745 z"
           style="font-style:normal;font-variant:normal;font-weight:normal;font-stretch:normal;font-size:7.33333349px;font-family:Purisa;-inkscape-font-specification:Purisa"
           id="path2461"
           inkscape:connector-curvature="0" />
        <path
           d="m 69.034448,78.039615 q -0.143449,-0.203935 -0.02349,-0.288317 0.07798,-0.05485 0.240536,0.09978 0.158343,0.14863 0.86608,0.950847 0.770363,0.865756 0.817891,0.895085 0.0071,-0.04087 -0.167802,-0.608199 -0.165818,-0.528901 -0.205978,-0.751696 -0.03838,-0.233012 -0.03696,-0.664369 0.01173,-0.9138 0.251656,-1.082564 0.15595,-0.109696 0.441574,0.0032 0.380019,0.14512 0.611865,0.3855 0.231846,0.24038 0.958647,1.235401 0.467658,0.639356 0.55204,0.759317 0.210955,0.299905 0.284002,0.454737 0.07483,0.144615 0.05393,0.204139 -0.01067,0.0613 -0.102424,0.134807 -0.05398,0.03797 -0.10573,0.0026 -0.04753,-0.02933 -0.161443,-0.191277 -0.06329,-0.08997 -0.258026,-0.392316 -0.198958,-0.308343 -0.342407,-0.512278 -0.358623,-0.509837 -0.742356,-0.966148 -0.381954,-0.466529 -0.532976,-0.566513 -0.08484,-0.05688 -0.209885,-0.09444 -0.125046,-0.03756 -0.185027,0.0046 -0.12596,0.0886 -0.0981,0.714541 0.02364,0.619943 0.159015,1.233022 0.13471,0.586646 0.229056,0.860983 0.09435,0.274338 0.324161,0.677532 0.364369,0.658214 0.334378,0.67931 -0.04798,0.03375 -0.20968,-0.0049 -0.112389,-0.01957 -0.288269,-0.218624 -0.180099,-0.205053 -0.677747,-0.823313 -0.501868,-0.624257 -1.042164,-1.239416 -0.557173,-0.639151 -0.734375,-0.89107 z"
           style="font-style:normal;font-variant:normal;font-weight:normal;font-stretch:normal;font-size:7.33333349px;font-family:Purisa;-inkscape-font-specification:Purisa"
           id="path2463"
           inkscape:connector-curvature="0" />
        <path
           d="m 78.019731,77.767606 q 0.26933,-0.237868 0.06059,-0.47422 -0.354376,-0.401247 -0.659205,-0.679926 -0.294479,-0.278037 -0.522921,-0.44807 -0.222945,-0.174887 -0.310968,-0.263474 -0.533631,-0.526665 -0.572107,-0.492684 -0.02199,0.01942 0.0049,0.171755 0.0422,0.324733 -0.0423,0.849424 -0.0845,0.524691 -0.21991,0.781258 -0.153825,0.302183 -0.439645,0.554616 -0.17589,0.155343 -0.319159,0.203605 -0.137774,0.04341 -0.428886,0.04613 -0.285616,-0.0021 -0.448664,-0.05381 -0.163048,-0.05168 -0.381139,-0.221068 -0.218091,-0.16939 -0.344307,-0.3123 -0.09223,-0.104435 -0.119435,-0.168467 -0.0926,-0.182388 -0.204404,-0.641324 -0.111808,-0.458937 -0.129738,-0.756188 -0.0205,-0.255847 0.113189,-0.735923 0.13433,-0.490428 0.308215,-0.780976 0.180024,-0.305753 0.504319,-0.592167 0.406744,-0.359231 0.802291,-0.45419 0.390692,-0.100455 0.647978,0.190861 0.145634,0.164896 0.276783,0.479561 0.136645,0.30981 0.296842,0.491196 0.08253,0.09344 1.73325,1.707701 l 1.087323,1.064966 -0.05645,0.323809 q -0.04225,0.262346 -0.20165,0.403126 -0.291316,0.257286 -0.840124,0.477819 -0.543953,0.22603 -1.016169,0.300647 -0.467361,0.08011 -0.574159,-0.04081 -0.126217,-0.14291 -0.16228,-0.482849 -0.03057,-0.344794 0.07387,-0.437029 0.120923,-0.106798 0.19374,-0.02435 0.04369,0.04947 0.0816,0.192097 0.03791,0.142628 0.120438,0.236069 0.135925,0.153903 0.441241,0.08971 0.305315,-0.06419 0.448225,-0.190405 0.08245,-0.07282 0.36642,-0.127938 0.289468,-0.05998 0.432378,-0.186192 z m -4.292613,-0.650729 q 0.28156,0.318799 0.67947,0.436998 0.397911,0.1182 0.645255,-0.100251 0.335289,-0.296122 0.453051,-0.938245 0.118403,-0.652473 -0.04267,-1.322282 -0.09624,-0.374845 -0.29407,-0.787163 -0.197185,-0.422669 -0.367091,-0.615048 -0.09709,-0.109931 -0.154983,-0.09794 -0.184674,0.04569 -0.459501,0.288417 -0.252841,0.223306 -0.385682,0.438469 -0.356837,0.559752 -0.360942,1.4635 -0.0041,0.903747 0.287163,1.23354 z"
           style="font-style:normal;font-variant:normal;font-weight:normal;font-stretch:normal;font-size:7.33333349px;font-family:Purisa;-inkscape-font-specification:Purisa"
           id="path2465"
           inkscape:connector-curvature="0" />
        <path
           d="m 79.785925,71.638728 q 0.02467,-0.02712 0.06807,0.01236 0.09764,0.08883 0.181358,0.432691 0.08866,0.338436 0.08163,0.629476 -0.01373,1.028511 -0.531922,1.598056 -0.197405,0.21697 -0.492446,0.345107 -0.29553,0.117778 -0.647748,0.134408 -0.352218,0.01663 -0.765038,-0.150763 -0.412819,-0.167393 -0.792515,-0.512852 -0.233243,-0.21221 -0.346619,-0.414506 -0.232176,-0.409527 -0.280241,-1.097691 -0.04313,-0.693588 0.243107,-1.008193 0.07896,-0.08679 0.253159,-0.245558 0.258582,-0.240623 0.384895,-0.314073 0.131248,-0.07887 0.357686,-0.120713 0.288106,-0.05513 0.607735,0.0076 0.31914,0.05242 0.454746,0.175795 0.173575,0.157924 0.142409,0.377427 -0.03659,0.214568 -0.305131,0.684075 -0.349992,0.613516 -0.767032,1.126373 l -0.431845,0.52913 0.216969,0.197405 q 0.401394,0.365199 1.099917,0.316644 0.527838,-0.0353 0.804205,-0.339061 0.21221,-0.233243 0.308066,-0.621919 0.09537,-0.399036 0.08958,-0.741384 -0.0058,-0.342348 0.0062,-0.638813 0.0065,-0.301399 0.06082,-0.361066 z m -2.118069,-0.330867 q -0.304867,0.02997 -0.421799,0.08221 -0.117421,0.04188 -0.240799,0.177488 -0.246756,0.271212 -0.315891,0.456169 -0.06963,0.174598 -0.0357,0.453323 0.09684,0.841597 0.254142,0.984716 0.07052,0.06416 0.188958,-0.06602 0.449096,-0.493606 1.06714,-1.586988 0.181665,-0.330434 0.01894,-0.478487 -0.07594,-0.06909 -0.514989,-0.02241 z"
           style="font-style:normal;font-variant:normal;font-weight:normal;font-stretch:normal;font-size:7.33333349px;font-family:Purisa;-inkscape-font-specification:Purisa"
           id="path2467"
           inkscape:connector-curvature="0" />
      </g>
      <g
         id="g2837"
         transform="translate(-0.47730405,1.9936218)">
        <path
           inkscape:connector-curvature="0"
           id="path2828"
           d="m 43.519556,70.240195 c -0.599385,-0.34641 -2.33954,-2.160089 -2.642729,-2.754388 l -0.08702,-0.170579 0.314088,-0.36587 c 1.573337,-1.83273 10.391024,-10.703419 12.055451,-12.127915 l 0.326123,-0.279112 0.129666,0.07646 c 0.456954,0.269459 2.676474,2.426615 2.853205,2.773034 0.08879,0.174052 0.114373,0.279228 0.104379,0.429189 -0.01489,0.223404 -1.869986,2.167618 -6.234625,6.534132 -3.70063,3.702218 -4.934479,4.90055 -5.714769,5.550268 -0.607826,0.506112 -0.738653,0.545793 -1.103766,0.334779 z m 1.972916,-1.87599 c 1.480879,-1.425885 5.971792,-5.898591 7.379705,-7.349787 2.039689,-2.102394 2.678984,-2.829463 2.678984,-3.046806 0,-0.145663 -0.147989,-0.261863 -0.288564,-0.226581 -0.184084,0.0462 -0.90077,0.731353 -4.279901,4.091583 -4.116693,4.093667 -6.143612,6.188702 -6.642771,6.866008 -0.218661,0.296699 -0.236691,0.428413 -0.08008,0.58502 0.102195,0.102196 0.118154,0.105612 0.205992,0.04409 0.05237,-0.03668 0.514355,-0.470266 1.026638,-0.963525 z"
           style="opacity:1;vector-effect:none;fill:#3f2d20;fill-opacity:1;fill-rule:nonzero;stroke:#3f2d20;stroke-width:0.5;stroke-linecap:butt;stroke-linejoin:miter;stroke-miterlimit:4;stroke-dasharray:none;stroke-dashoffset:0;stroke-opacity:1" />
        <path
           inkscape:connector-curvature="0"
           id="path2814"
           d="m 55.695825,71.878373 c -0.09093,-0.0435 -0.252651,-0.145655 -0.359375,-0.226999 -0.535955,-0.408501 -3.045889,-3.013144 -4.780883,-4.961282 l -0.74975,-0.841858 0.465742,-0.455017 c 0.256159,-0.25026 0.510318,-0.479908 0.564798,-0.510329 l 0.09905,-0.05531 0.290998,0.241991 c 0.865692,0.719899 3.751791,3.394248 4.916879,4.556131 0.373171,0.372144 0.592442,0.616293 0.647944,0.721457 0.225178,0.42666 0.236128,1.09431 0.0224,1.366016 -0.0939,0.119372 -0.37608,0.214002 -0.686854,0.230338 -0.23644,0.01243 -0.283791,0.0053 -0.430958,-0.06514 z"
           style="opacity:1;vector-effect:none;fill:#b3b9b5;fill-opacity:1;fill-rule:nonzero;stroke:#b3b9b5;stroke-width:0.1;stroke-linecap:butt;stroke-linejoin:miter;stroke-miterlimit:4;stroke-dasharray:none;stroke-dashoffset:0;stroke-opacity:1" />
        <path
           inkscape:connector-curvature="0"
           id="path2824"
           d="m 55.778483,55.399892 -0.531824,-0.54189 0.880551,-0.830667 c 0.484303,-0.456867 1.029994,-0.868175 1.212645,-0.914017 0.584951,-0.146813 0.905066,0.241536 0.740284,0.898079 -0.07167,0.285564 -1.507569,1.930384 -1.685189,1.930384 -0.04655,0 -0.323963,-0.24385 -0.616467,-0.541889 z"
           style="opacity:1;vector-effect:none;fill:#d6dee2;fill-opacity:1;fill-rule:nonzero;stroke:#d6dee2;stroke-width:0.5;stroke-linecap:butt;stroke-linejoin:miter;stroke-miterlimit:4;stroke-dasharray:none;stroke-dashoffset:0;stroke-opacity:1" />
        <path
           inkscape:connector-curvature="0"
           id="path2826"
           d="m 39.517328,71.612424 c -0.14249,-0.181147 -0.259072,-0.369582 -0.259072,-0.418746 0,-0.163513 0.712909,-1.05713 1.279369,-1.603663 l 0.558929,-0.539266 0.517771,0.618422 0.517772,0.618421 -0.876764,0.827094 c -0.982748,0.927075 -1.323522,1.024667 -1.738005,0.497738 z"
           style="opacity:1;vector-effect:none;fill:#d6dee2;fill-opacity:1;fill-rule:nonzero;stroke:#d6dee2;stroke-width:0.5;stroke-linecap:butt;stroke-linejoin:miter;stroke-miterlimit:4;stroke-dasharray:none;stroke-dashoffset:0;stroke-opacity:1" />
        <g
           id="g2804">
          <path
             style="fill:#000000;stroke-width:0.17438723;marker-start:url(#marker2782)"
             d="m 57.227222,72.18097 c 0.543731,-0.567536 0.484144,-1.590781 0.213451,-2.114245 -0.270693,-0.523464 -1.554357,-1.695286 -3.142282,-3.164273 l -2.887148,-2.670883 2.967899,-2.985515 c 3.112602,-3.131078 3.234044,-3.320869 2.732653,-4.270826 -0.217815,-0.412696 -0.175786,-0.493344 0.787312,-1.510795 1.143285,-1.207792 1.324897,-1.929925 0.663819,-2.639506 -0.808613,-0.867943 -1.59613,-0.711119 -2.959544,0.58936 -0.724245,0.690806 -1.035333,0.884507 -1.226448,0.763642 -0.140831,-0.08906 -0.559009,-0.163145 -0.929292,-0.164614 -0.632606,-0.0026 -0.82609,0.147313 -3.2059,2.482348 -1.497122,1.468963 -2.565385,2.39386 -2.612706,2.26207 -0.04405,-0.122622 -0.472285,-1.025074 -0.951678,-2.005454 -1.950096,-3.988013 -4.0088,-5.948797 -6.245877,-5.948797 -2.03229,0 -4.071256,1.758475 -4.559717,3.932458 -0.353472,1.573185 0.682462,3.453007 2.7806,5.045714 1.142398,0.867203 4.748977,2.773965 5.246862,2.773965 0.137921,0 -0.621073,0.892216 -1.686651,1.982708 -1.06558,1.09048 -1.987774,2.183334 -2.049321,2.428556 -0.06426,0.256021 -0.008,0.655531 0.132211,0.938286 0.238191,0.480474 0.219529,0.519023 -0.769064,1.58872 -0.833857,0.902273 -1.013179,1.204604 -1.013179,1.708203 0,0.849592 0.637314,1.467985 1.512905,1.467985 0.564912,0 0.796857,-0.138575 1.657583,-0.990316 0.935565,-0.925806 1.03016,-0.976927 1.451957,-0.784745 1.012487,0.461323 1.240091,0.330307 3.754414,-2.161065 l 2.388439,-2.366639 2.646381,2.856468 c 1.455513,1.571056 2.871049,2.989183 3.145639,3.151382 0.772836,0.456532 1.612951,0.373344 2.156682,-0.194192 z M 39.247439,71.255198 c -0.03737,-0.30783 0.191576,-0.655047 0.879414,-1.333685 l 0.92994,-0.917509 0.594531,0.613404 0.594534,0.613405 -0.776397,0.800284 c -0.427019,0.440152 -0.933348,0.863812 -1.125173,0.941461 -0.463494,0.18762 -1.032135,-0.184287 -1.096849,-0.71736 z m 14.376153,-1.24134 C 52.582779,68.933084 51.295554,67.555571 50.76308,66.95272 l -0.968122,-1.096085 0.495312,-0.51699 c 0.272424,-0.284347 0.560987,-0.51699 0.641254,-0.51699 0.163823,0 5.286329,4.749565 5.761567,5.342094 0.351156,0.437831 0.402416,1.292018 0.09592,1.598519 -0.115096,0.115095 -0.448614,0.210692 -0.741148,0.21244 -0.451165,0.0025 -0.819067,-0.295028 -2.424268,-1.96185 z M 42.1184,69.027972 c -0.735978,-0.756287 -1.338144,-1.520196 -1.338144,-1.697568 0,-0.373294 12.342767,-12.796598 12.713641,-12.796598 0.131747,0 0.90703,0.655596 1.722848,1.456882 1.253863,1.231523 1.466861,1.521505 1.376978,1.874662 -0.05908,0.232198 -2.803525,3.109672 -6.178212,6.477734 -4.793217,4.783813 -6.165276,6.059963 -6.515418,6.059963 -0.324501,0 -0.802698,-0.369061 -1.781693,-1.375075 z m 7.974288,-5.234356 c 4.099844,-4.101346 5.532192,-5.638351 5.451171,-5.84949 -0.08285,-0.215895 -0.185658,-0.244291 -0.41767,-0.115365 -0.169264,0.09407 -2.732218,2.600855 -5.695448,5.570643 -3.883581,3.892176 -5.357821,5.477468 -5.280691,5.678463 0.05885,0.15337 0.168782,0.278849 0.244288,0.278849 0.07551,0 2.639765,-2.503391 5.69835,-5.563102 z M 41.603618,60.78856 C 38.032399,58.990205 36.02821,56.599447 36.5795,54.795386 c 0.112015,-0.366568 0.164869,-0.418765 0.176565,-0.174386 0.03442,0.719232 0.911069,2.232834 1.884009,3.252893 1.017448,1.066722 2.891628,2.402786 4.884711,3.482208 0.59832,0.32404 1.088783,0.6437 1.08992,0.710356 0.0024,0.133721 -1.334327,-0.433533 -3.011087,-1.277897 z M 41.415659,59.281802 C 39.143897,57.78358 37.474021,55.70845 37.468602,54.37685 c -0.0016,-0.379663 0.0442,-0.355367 0.492553,0.261581 1.137297,1.564966 3.059859,3.406472 6.579509,6.302105 0.664265,0.546495 0.644166,0.541556 -0.621438,-0.152718 -0.719348,-0.394614 -1.845955,-1.07232 -2.503567,-1.506016 z m 2.067598,-0.102298 c -2.638687,-2.196427 -5.667584,-5.481631 -5.667584,-6.147178 0,-1.130064 3.827133,2.18504 6.824665,5.911597 2.009922,2.498751 1.649858,2.57206 -1.157081,0.235581 z m 1.558948,-0.798884 c -1.538477,-1.927365 -3.86394,-4.327718 -5.02228,-5.18402 -0.956365,-0.706991 -0.98992,-0.7552 -0.523161,-0.751615 1.806157,0.01386 4.160176,2.439369 6.512333,6.710078 0.653456,1.186454 0.500663,1.064072 -0.966892,-0.774443 z m 1.420043,0.195343 c -0.688976,-1.354943 -2.446164,-3.903292 -3.289957,-4.771238 -1.040149,-1.069924 -1.9986,-1.690716 -3.033434,-1.964764 l -0.840893,-0.22269 0.642586,-0.128495 c 2.164209,-0.432767 4.726838,2.139966 6.682332,6.708683 0.641075,1.49778 0.535273,1.74708 -0.160634,0.378504 z m 9.66257,-4.650981 c 0.944129,-0.956003 1.470472,-1.165826 1.884891,-0.7514 0.444149,0.444142 0.225055,1.07169 -0.701826,2.010224 l -0.911085,0.922551 -0.610359,-0.610356 -0.610352,-0.610355 z"
             id="path2481"
             inkscape:connector-curvature="0"
             sodipodi:nodetypes="zzccscccccccccsscsccccssccsccczsccccccscccssccccccssccssccccscsccsccsscscccsscsssssscssssccscsscccccs" />
          <path
             style="fill:#ffffff;fill-opacity:0.9754902;stroke:none;stroke-width:1px;stroke-linecap:butt;stroke-linejoin:miter;stroke-opacity:1"
             d="m 57.523437,70.211563 c 0.188164,0.621572 0.146132,1.485285 -0.242185,1.914063 -0.47302,0.504701 -1.181416,0.762877 -2.210938,0.265625 -0.776412,-0.375002 -1.98974,-1.3591 -2.5,-0.664063 -0.991926,1.351127 2.687501,4.25 2.687501,4.25 l 4.460937,-3.40625 -1.695313,-4.046875 c 0,0 -0.669983,1.125993 -0.500002,1.6875 z"
             id="path2800"
             inkscape:connector-curvature="0"
             sodipodi:nodetypes="scsacccs" />
        </g>
      </g>
    </g>
  </g>
</svg>
